#!OML:ASF E:/inclinewalkrobotboard/Project1/Captureday1/Session1/subject1.ASF
:FULLY-SPECIFIED
:DEGREES
151
root 0 0 0 2.8810162582932706 -4.288830006338824 2.111052875186637
lowerback 11.843350366502822 1.1855992705298584 -0.05784220561316056
upperback -4.203588000050565 1.5307456162647006 -0.7852428672922297
thorax -11.101983434615496 0.7034492936699417 -1.1150826407590368
lowerneck -6.982968313158837 1.2975231711173028 4.265314097959901
upperneck 18.984171174797382 2.7097356621735624 -8.014646877227607
head 7.096518715379968 0.9326434492367085 -3.1160855782177475
rclavicle -1.372038523720757E-15 -7.446586379878762E-16
rhumerus 17.80118289518778 13.868139053500757 -51.729652893217775
rradius 69.1994400646733
rwrist 23.382090222858068
rhand -32.946500346543466 -48.97180700376728
rfingers 7.125019999999962
rthumb -6.213086576033017 -79.02038033429173
lclavicle 9.228931740223346E-16 9.972572416394203E-16
lhumerus 17.6804746624088 -13.66643498935623 49.508187695642235
lradius 67.15912341370806
lwrist -18.155232723177107
lhand -43.91749373981443 -60.260053293621425
lfingers 7.125019999999956
lthumb -16.751739723858652 -30.808907231229757
rfemur -23.6174891302673 2.4791186298429695 20.504966364366222
rtibia 29.580789049613475
rfoot -30.006374846264464 -16.514500396359256
rtoes -21.15010657866866
lfemur -21.908268291825777 0.3043042563321171 -15.523925097120989
ltibia 32.03655106840123
lfoot -28.063722794752167 6.385693333535717
ltoes -19.405642346378396
152
root 0 0 0 2.8720009778562576 -4.280198048326281 2.1067298548168494
lowerback 11.790569016064172 1.19225994078383 -0.05287186916264397
upperback -4.213904210805042 1.5380846183380883 -0.7917245383016552
thorax -11.0799729353047 0.7069954805706998 -1.1237459248475716
lowerneck -6.960181388210061 1.273963869113267 4.262622483095384
upperneck 19.136722785549228 2.676036958085829 -8.018291468068261
head 7.144662467099787 0.9157318454755644 -3.121088012356373
rclavicle -1.1748139781184474E-15 -7.177611900388033E-16
rhumerus 17.41213146586734 13.364371725571486 -51.46001345859852
rradius 68.88505121316686
rwrist 23.691769826372344
rhand -32.92311695385859 -48.94917990874536
rfingers 7.125019999999962
rthumb -6.188040227850022 -79.0112277118914
lclavicle 9.678610888641102E-16 8.986856625107983E-16
lhumerus 17.443741026627286 -13.306549892273322 49.43547032522632
lradius 66.89352135280308
lwrist -18.32486959712277
lhand -43.88145406108865 -60.41694065999879
lfingers 7.125019999999955
lthumb -16.718457340476238 -30.960201564531705
rfemur -22.932526535925522 2.4533482105679036 20.131650014742405
rtibia 30.449469492559558
rfoot -27.58455185318333 -15.769915930489704
rtoes -21.460892284486956
lfemur -20.529436899375693 -0.044520192497255806 -15.137510781590558
ltibia 32.206160182634406
lfoot -25.143621717330397 4.736701933393432
ltoes -20.120035582904812
153
root 0 0 0 2.774123590025792 -4.258150510026823 2.165668046501874
lowerback 11.786635917067207 1.1804117691371308 -0.10074600382334498
upperback -4.219379251718029 1.5150240118882723 -0.8025738159387504
thorax -11.086957129856517 0.6972070859734812 -1.1036375599055233
lowerneck -6.921365120656484 1.265111020200752 4.27204831498868
upperneck 19.33273925985021 2.665333803970791 -8.05956022724717
head 7.204620887553421 0.9069061969848077 -3.138591907527246
rclavicle -8.776638571794315E-16 -8.415986839892589E-16
rhumerus 16.947270513184286 12.740692238914688 -51.09327620890737
rradius 68.51063302227789
rwrist 24.105203208946257
rhand -32.905085371560936 -48.9738062055833
rfingers 7.125019999999962
rthumb -6.168690334317297 -79.05467301086861
lclavicle 1.0132222177235099E-15 6.924539561267105E-16
lhumerus 17.241189113479187 -12.932381964959157 49.32970358335998
lradius 66.64346029219432
lwrist -18.52640168485466
lhand -43.8630733705868 -60.665524336527504
lfingers 7.125019999999954
lthumb -16.702270653080127 -31.205890010577054
rfemur -23.473188315368837 1.6817040366339622 19.00941886466626
rtibia 35.98645820657847
rfoot -23.586922629191946 -14.958145885164896
rtoes -20.574273991557174
lfemur -19.333585723570973 0.17351469829681665 -14.709491243182404
ltibia 36.03115231179729
lfoot -21.684397383269992 2.216727790762185
ltoes -20.72516046375871
154
root 0 0 0 2.576788082888773 -4.222979893528727 2.2989599847463382
lowerback 11.84151658215508 1.1511037652888159 -0.21253664773871594
upperback -4.2132767902884005 1.4617428878059262 -0.8197176754832177
thorax -11.122668500066348 0.6746457092644385 -1.050067579322067
lowerneck -6.880154122963753 1.276773012586932 4.287160072120023
upperneck 19.50231690631417 2.6849917675808364 -8.118524900386564
head 7.25520325628613 0.9108338444963252 -3.159930821222641
rclavicle -6.011743231106341E-16 -1.0837199784417526E-15
rhumerus 16.50051025205719 12.120710765707104 -50.69847567931604
rradius 68.1508149334304
rwrist 24.543996983227988
rhand -32.89692874593816 -49.04486766097176
rfingers 7.125019999999962
rthumb -6.159744922508848 -79.14910811928682
lclavicle 1.0070346025200115E-15 4.0036835075709687E-16
lhumerus 17.133233506403613 -12.6299506767528 49.204486852446195
lradius 66.47587139556357
lwrist -18.721294887386815
lhand -43.87408663796775 -60.98240503812234
lfingers 7.125019999999954
lthumb -16.714266352527105 -31.52351943804838
rfemur -25.79202049705283 0.13890895162029837 17.11388644270597
rtibia 46.17822981838989
rfoot -18.03118199265827 -14.132640441726387
rtoes -18.064716521301417
lfemur -18.352668957730835 1.0658862304516137 -14.339594264592549
ltibia 44.228699116554594
lfoot -17.75662075655162 -1.3224315357519987
ltoes -21.109942868330762
